<?xml version="1.0" standalone="no"?>
<!DOCTYPE svg PUBLIC "-//W3C//DTD SVG 1.1//EN" "http://www.w3.org/Graphics/SVG/1.1/DTD/svg11.dtd" >
<svg>
<metadata>
Created by FontForge 20090914 at Fri Feb 24 14:40:55 2012
 By root
Typeface &#194;&#169; (www.kevinandamanda.com). &#60;2007&#62;. All Rights Reserved
</metadata>
<defs>
<font id="PeaSusela" horiz-adv-x="700" >
  <font-face 
    font-family="Pea Susela"
    font-weight="400"
    font-stretch="normal"
    units-per-em="2048"
    panose-1="2 0 0 0 0 0 0 0 0 0"
    ascent="1638"
    descent="-410"
    x-height="1008"
    cap-height="1677"
    bbox="-105 -1444 2173 2002"
    underline-thickness="150"
    underline-position="-142"
    unicode-range="U+0020-U+201D"
  />
<missing-glyph horiz-adv-x="1855" 
d="M776 1982l4 -1l2 2l98 -8h66q124 0 439 -182q116 -70 226 -257q123 -188 123 -293l19 -108q-58 -347 -160 -453q-47 -118 -275 -245q-152 -61 -279 -86h-105l16 -3l-3 -15l6 -177v-304q0 -72 25 -176v-106l37 -174l-7 -136q-55 -50 -104 -50q-71 29 -88 72v22l5 21l-6 23
v-1q-16 0 -62 623l5 49l-7 8l9 44v119l-13 94l5 78q-25 2 -141 39q-146 15 -384 203v-11q-29 0 -183 291q-84 158 -84 344q0 140 68 256q0 54 172 264q126 110 299 154q0 41 277 80zM187 1356l-3 3v-30l-12 -49v-129q68 -297 230 -431q99 -108 334 -155q0 -10 11 -12v121
l-6 40l6 29l-13 43l7 34l-6 74l6 35l-9 36q-160 0 -214 100v32q24 59 93 59h28l498 -52h-364v604q-38 -440 49 -440h11q83 -14 83 -59v-48l6 -59l-5 -27l18 -47l-7 -84q15 -88 -100 -88q213 151 314 151q54 -18 77 -63v-39q-51 -57 -217 -143q-67 -52 -62 -52v-2l7 -64
l-6 -36l8 -49l-59 -58v188l64 -160l-57 -230v238l40 -7l113 6q256 57 354 184l73 120q76 172 76 276v56q0 110 -113 282q-82 170 -285 261q-150 93 -320 93q-78 0 -280 -66q-180 -58 -237 -147q-27 -22 -45 -85q-22 0 -74 -136z" />
    <glyph glyph-name=".notdef" horiz-adv-x="1855" 
d="M776 1982l4 -1l2 2l98 -8h66q124 0 439 -182q116 -70 226 -257q123 -188 123 -293l19 -108q-58 -347 -160 -453q-47 -118 -275 -245q-152 -61 -279 -86h-105l16 -3l-3 -15l6 -177v-304q0 -72 25 -176v-106l37 -174l-7 -136q-55 -50 -104 -50q-71 29 -88 72v22l5 21l-6 23
v-1q-16 0 -62 623l5 49l-7 8l9 44v119l-13 94l5 78q-25 2 -141 39q-146 15 -384 203v-11q-29 0 -183 291q-84 158 -84 344q0 140 68 256q0 54 172 264q126 110 299 154q0 41 277 80zM187 1356l-3 3v-30l-12 -49v-129q68 -297 230 -431q99 -108 334 -155q0 -10 11 -12v121
l-6 40l6 29l-13 43l7 34l-6 74l6 35l-9 36q-160 0 -214 100v32q24 59 93 59h28l498 -52h-364v604q-38 -440 49 -440h11q83 -14 83 -59v-48l6 -59l-5 -27l18 -47l-7 -84q15 -88 -100 -88q213 151 314 151q54 -18 77 -63v-39q-51 -57 -217 -143q-67 -52 -62 -52v-2l7 -64
l-6 -36l8 -49l-59 -58v188l64 -160l-57 -230v238l40 -7l113 6q256 57 354 184l73 120q76 172 76 276v56q0 110 -113 282q-82 170 -285 261q-150 93 -320 93q-78 0 -280 -66q-180 -58 -237 -147q-27 -22 -45 -85q-22 0 -74 -136z" />
    <glyph glyph-name=".null" horiz-adv-x="40" 
 />
    <glyph glyph-name="nonmarkingreturn" horiz-adv-x="40" 
 />
    <glyph glyph-name="space" unicode=" " horiz-adv-x="1199" 
 />
    <glyph glyph-name="space" unicode="&#xa0;" horiz-adv-x="1199" 
 />
    <glyph glyph-name="exclam" unicode="!" horiz-adv-x="374" 
d="M127 1600q86 1 133 -324l5 -270l31 -113l2 -171q5 -71 30 -70l-13 -71l16 -114l-27 -57l30 -85q-48 -313 -123 -314l-28 -1l-72 56l12 142l-2 99l-15 57l13 43l-100 893l13 57l-15 14v14q-4 213 110 215zM140 10q143 -45 145 -139l1 -57q-58 -101 -84 -101l-85 -2
q-115 89 -117 211q73 76 140 88z" />
    <glyph glyph-name="quotedbl" unicode="&#x22;" 
d="M62 1633l128 2q42 -13 44 -84q-11 -426 -35 -427l15 -71l2 -142q-31 -53 -111 -101l-43 -1q-57 29 -58 70l12 100l-16 127l22 370l-1 71q7 85 41 86zM488 1612l114 2q57 -27 58 -84l-82 -158l-24 -256v-28l31 -156l1 -43q1 -42 -56 -43q-108 -2 -163 366q30 399 121 400z
M270 1111l28 1l29 -28l-42 -44h-14l-29 28v14z" />
    <glyph glyph-name="ampersand" unicode="&#x26;" horiz-adv-x="1518" 
d="M648 1329q157 -68 159 -196l2 -85q-52 -295 -175 -586l15 1q56 -28 156 -26h29l268 90l29 -28v-28l-55 -72q217 4 401 -206l1 -57q-41 -72 -98 -73l-243 96l-172 53l-71 -1q-81 -1 -322 -232q-159 -126 -394 -206h-14q-72 40 -73 84q-1 80 193 329l69 115l-229 124
q-116 137 -118 239v15q-6 331 500 633zM191 668q1 -87 229 -153l43 1q64 49 161 557l-1 42l-14 14l-1 15q-422 -239 -417 -476zM497 176l99 58l-1 29l-56 -1q-43 -15 -42 -86z" />
    <glyph glyph-name="quotesingle" unicode="'" horiz-adv-x="395" 
d="M99 1507l15 1q127 2 133 -339q25 1 63 -340l1 -71l44 -56v-28l-68 -129l-86 -1q-45 15 -87 140l12 85q-90 283 -123 566l-1 43q-2 128 97 129z" />
    <glyph glyph-name="parenleft" unicode="(" horiz-adv-x="811" 
d="M497 1471l114 2q157 -30 157 -69q3 -170 -267 -175q-74 -1 -194 -230q-95 -286 -120 -457l1 -43q59 -396 120 -395q49 -112 316 -207l15 -14v-28l-42 -44q-422 -7 -532 360l-60 212l-5 284q26 223 231 614q171 188 266 190z" />
    <glyph glyph-name="parenright" unicode=")" horiz-adv-x="1061" 
d="M127 1412l171 3q246 -27 516 -261q203 -275 207 -479q-30 -347 -285 -743l-140 -145h-14l-44 42q261 552 255 856v14q-4 246 -348 434l-215 82l-113 -31q-67 -1 -115 112q-2 91 125 116z" />
    <glyph glyph-name="asterisk" unicode="*" horiz-adv-x="1776" 
d="M1158 1463q160 -58 172 -96v-43q-53 -66 -225 -118l-54 -157q46 -198 89 -197l56 29l15 -14l14 1q345 91 481 93l28 1l1 -43q1 -47 -466 -150q0 -19 -98 -44v-29h-14q2 -142 417 -305l1 -71l-28 -29l-142 -2l-185 53l-14 -14v-14l16 -114q-24 -185 -82 -186h-14
q-34 -1 -106 410q-94 82 -187 82l1 -14l-247 -501l-57 -1q-28 -1 -29 41l119 485v15l-508 -180h-29q-71 35 -72 112q-2 84 450 207v14q-31 70 -415 206q-44 51 -45 98q-1 77 55 101l100 2q91 1 544 -275h29q52 78 94 272h15q-30 78 -33 241q22 71 84 73l114 -13
q48 72 155 74z" />
    <glyph glyph-name="comma" unicode="," horiz-adv-x="387" 
d="M274 216q71 -35 73 -112v-43q-122 -92 -191 -457q3 -157 -110 -158l-44 41l-2 128q45 526 175 528q-1 71 99 73z" />
    <glyph glyph-name="hyphen" unicode="-" horiz-adv-x="1163" 
d="M55 974l214 -10l198 3l241 19l1 -14l42 15l128 -12l14 14l71 -13l100 2l57 -56q2 -67 -338 -148l-156 -3l-156 -31l-255 -4q-171 -3 -216 152z" />
    <glyph glyph-name="hyphen" unicode="&#xad;" horiz-adv-x="1163" 
d="M55 974l214 -10l198 3l241 19l1 -14l42 15l128 -12l14 14l71 -13l100 2l57 -56q2 -67 -338 -148l-156 -3l-156 -31l-255 -4q-171 -3 -216 152z" />
    <glyph glyph-name="period" unicode="." horiz-adv-x="310" 
d="M142 185q128 -19 128 -128v-14q0 -114 -114 -114h-28q-128 24 -128 142q69 114 142 114z" />
    <glyph glyph-name="slash" unicode="/" horiz-adv-x="1148" 
d="M1008 1647q36 -4 100 -99v-71l-213 -384l-370 -781l-255 -567q-89 -298 -199 -298h-14l-57 56v43q0 164 596 1391l157 341q137 369 255 369z" />
    <glyph glyph-name="zero" unicode="0" horiz-adv-x="1133" 
d="M440 1594q226 -30 511 -312q142 -234 142 -327v-71q0 -177 -355 -469q-198 -127 -312 -142l-43 -28q-292 0 -383 128v213q284 923 327 923q8 32 113 85zM227 529q22 -57 43 -57h14q275 0 596 284l57 100v14q-121 368 -326 468l-71 29q-96 0 -242 -597q-41 -37 -71 -241z
" />
    <glyph glyph-name="one" unicode="1" horiz-adv-x="324" 
d="M142 1466q76 0 99 -184l-14 -270v-469l29 -156v-284l28 -113q0 -100 -85 -100q-148 0 -171 554l-14 241v313l-14 56q30 412 99 412h43z" />
    <glyph glyph-name="two" unicode="2" horiz-adv-x="1318" 
d="M554 1338q298 -32 298 -198v-171q-51 -213 -284 -426l-142 -184v-15h85l739 114l28 -85q0 -72 -398 -142q-377 -139 -639 -171l-56 -14h-43q-79 0 -142 100v56q625 626 625 867l-29 28q-88 0 -383 -128q-156 49 -156 156v29q21 62 213 156l42 -14q180 14 242 42z" />
    <glyph glyph-name="three" unicode="3" horiz-adv-x="1318" 
d="M753 1424q127 -53 127 -171l-71 -213v-14h15l127 14q313 0 313 -270l14 -14q0 -193 -142 -326q-101 -148 -497 -454l-256 -114h-99l-28 28v15q0 96 198 170q597 434 597 681v43l-29 28h-85q-341 -88 -596 -369q-109 -114 -171 -114q-113 11 -113 100q0 83 369 440
l199 270v28q-90 -5 -398 -199q-59 -99 -85 -99h-28q-78 0 -114 71v43q0 194 454 312q142 114 299 114z" />
    <glyph glyph-name="four" unicode="4" horiz-adv-x="1361" 
d="M880 1622h71l114 -142l-14 -99v-71l14 -128q-57 -130 -57 -440h14l199 28q100 -35 100 -99q0 -96 -313 -142v-28l29 -511q-52 -43 -100 -43q-101 0 -142 355v142l-42 42l-540 -71l-57 -14h-71q-85 49 -85 142l284 497q138 220 170 369l71 15h29q42 0 85 -157
q-65 -189 -270 -511l-28 -99h14q426 20 426 85l14 71v270l29 227v185q0 108 56 127z" />
    <glyph glyph-name="five" unicode="5" horiz-adv-x="1332" 
d="M1065 1637q227 -30 227 -171q0 -37 -99 -57l-213 15l-85 -29h-157q-383 -49 -383 -128q-43 0 -85 -198q0 -64 355 -185q184 -115 184 -213l15 -114q0 -110 -256 -284q-43 -33 -213 -71q-225 0 -355 199v29q0 104 43 113h42l171 -128q190 0 340 171v28q0 54 -326 156
l-14 15q-23 42 -100 42q-113 169 -113 213v14q0 469 255 469q0 43 213 43q0 51 554 71z" />
    <glyph glyph-name="six" unicode="6" horiz-adv-x="1133" 
d="M554 1622h28q54 0 128 -227q-54 -57 -142 -57q-164 -211 -241 -553h14q266 99 412 99h113q202 0 227 -312q-102 -303 -426 -483q-158 -85 -241 -85h-57q-202 0 -369 383q68 205 142 582q244 653 412 653zM256 486q28 -284 184 -284l327 157q170 120 170 227
q-27 65 -57 71h-113q-372 0 -511 -171z" />
    <glyph glyph-name="seven" unicode="7" horiz-adv-x="1304" 
d="M1150 1509h29l85 -85v-86q-213 -240 -213 -482l-43 -199v-213l-57 -313l15 -71l-29 -56l14 -14v-14q-28 -142 -113 -142q-49 11 -85 85v283l28 157v113q0 175 99 710h-14l-426 -42l-42 14l-86 -14h-85q-227 15 -227 170q29 85 57 85h28l156 -28h313q531 62 596 142z" />
    <glyph glyph-name="eight" unicode="8" horiz-adv-x="1190" 
d="M838 1622q83 -11 199 -142q113 0 113 -28v-43q-346 -344 -369 -397v-14q340 -265 369 -441q0 -255 -468 -411q-124 0 -256 -43q-319 0 -341 185v99q0 163 341 525v15q-383 164 -383 326q-43 14 -43 85v29q110 223 838 255zM241 1282q0 -74 355 -185l242 227v14l-384 57z
M284 344q0 -42 128 -56q346 87 511 213v42q-2 91 -298 284h-29q-284 -292 -312 -483z" />
    <glyph glyph-name="nine" unicode="9" horiz-adv-x="1020" 
d="M667 1509q299 0 299 -242l14 -99l-29 -483l15 -113q-29 -51 -57 -582v-128q-20 -199 -71 -199l-57 -14q-76 0 -99 199q28 55 28 156v42l-14 227q42 65 42 441v127q-254 -241 -340 -241h-86q-179 0 -312 270v99q95 355 213 355q114 128 454 185zM213 912q10 -64 142 -113
q173 62 369 341l29 127v15h-157q-340 -138 -340 -213z" />
    <glyph glyph-name="colon" unicode=":" horiz-adv-x="381" 
d="M199 1037q99 0 142 -71v-43q0 -114 -156 -142h-15q-39 0 -56 142v71q14 43 85 43zM199 355q58 -20 85 -71v-99q-55 -86 -156 -86q-128 45 -128 142q0 114 199 114z" />
    <glyph glyph-name="question" unicode="?" horiz-adv-x="1105" 
d="M540 2002q410 0 525 -270v-127q0 -136 -398 -455l-340 -213v-28h42q341 -61 341 -128v-28q0 -33 -71 -43l-128 28h-213q-175 0 -255 142v15q0 137 312 269q483 317 483 483v43q-66 113 -227 113q-196 0 -455 -213q0 -99 -57 -99q-99 0 -99 227q0 133 469 270zM383 57h57
q85 -50 85 -128v-14q0 -42 -170 -85q-142 51 -142 128q34 99 170 99z" />
    <glyph glyph-name="at" unicode="@" horiz-adv-x="2213" 
d="M1250 1789h227q193 -22 426 -184q270 -292 270 -554v-57q0 -257 -199 -412q-96 -128 -199 -128h-142q-61 0 -241 157q-281 -299 -412 -299h-171q-127 102 -127 228q0 185 411 525q160 113 299 128h85q113 -81 113 -156v-15q-42 -52 -42 -99v-170q37 -71 170 -128
q313 136 313 255l-15 15l15 71v85q-156 426 -270 426q0 69 -355 142h-128q-479 -68 -824 -355q-202 -242 -255 -469v-142l-14 -57q91 -393 340 -610q182 -156 654 -227l255 43h14l43 -43v-14q0 -61 -440 -114q-586 0 -852 454q-80 0 -199 440q0 540 312 838q221 259 739 398
zM866 525v-14l29 -42q454 127 454 454v71h-14q-416 -248 -469 -469z" />
    <glyph glyph-name="A" unicode="A" horiz-adv-x="1402" 
d="M545 1693q216 -117 285 -283l173 -397l71 -113q57 -21 57 -42l-13 -85q165 -264 245 -695q-48 -156 -156 -156q-99 48 -100 126l14 128q-58 232 -173 425q-29 85 -57 85h-57q-429 -166 -467 -201q-43 -86 -125 -668q-59 -128 -84 -128h-43q-114 -1 -115 212v71l54 440
l-28 85q-1 39 84 157l167 569l127 313q-1 90 141 157zM560 1409l-83 -270l14 -15v-14q-56 -135 -83 -327v-14l397 116q-110 355 -230 524h-15z" />
    <glyph glyph-name="B" unicode="B" horiz-adv-x="1408" 
d="M751 1554q256 -27 257 -197l14 -43l1 -128q1 -95 -112 -270v-28h43q383 -65 384 -197q29 0 29 -71v-28q1 -251 -636 -572q0 -38 -397 -172l-100 85q-74 0 -100 113l14 57l-73 510l-1 86q-2 437 -74 624l156 58l57 -14q348 186 538 187zM286 1026v-28l15 -114l-14 -113
v-15l14 -14v-14l383 158l126 328v42q-1 100 -100 99h-14q-412 -126 -410 -329zM332 373l15 -142v-184h15q788 364 792 558q0 57 -341 97q-66 0 -354 -257z" />
    <glyph glyph-name="C" unicode="C" horiz-adv-x="1391" 
d="M947 1682q213 -47 214 -169l-14 -57l15 -42l-14 -157l29 -141q-19 -59 -70 -86h-71q-114 80 -115 155q42 122 56 284q-407 -2 -777 -770q1 -313 257 -311h142q364 2 624 231l85 14q43 -51 43 -99q0 -122 -269 -228q-118 -105 -439 -145v-14q-559 -3 -627 352l-14 57
l-1 71q-1 249 309 640q392 414 637 415z" />
    <glyph glyph-name="D" unicode="D" horiz-adv-x="1350" 
d="M127 1593q104 -42 427 -69q353 -71 612 -323q129 -181 129 -297l15 -171q-164 -319 -522 -542q-186 -130 -482 -258h-42q-71 0 -173 467l-59 483l13 71l-14 42l14 114q-16 308 -45 369q46 114 127 114zM271 1196l15 -85l-13 -156v-142l16 -199l-15 -14v-14l59 -312
l86 -99q4 24 410 272q268 266 268 427q-1 184 -372 367q-160 70 -369 69q-85 -29 -85 -114z" />
    <glyph glyph-name="E" unicode="E" horiz-adv-x="1789" 
d="M1160 1583q86 1 114 -113q1 -150 -510 -201q0 -32 -369 -73l-85 -1q-29 0 -28 -43q57 -85 72 -269q143 68 411 116q110 67 482 102h142l43 -42v-14q-93 -88 -552 -188l-539 -201l1 -227q38 -242 158 -241h71q415 45 737 160l312 73h71l57 -56l1 -43q0 -56 -468 -172
q-382 -187 -823 -189q-242 76 -242 183q-44 0 -115 298l13 113q-71 0 -114 71v14q0 50 127 228q-37 266 -87 368q-1 152 865 275z" />
    <glyph glyph-name="F" unicode="F" horiz-adv-x="1527" 
d="M1372 1740q74 0 114 -71v-14q1 -142 -269 -144l-482 -101q-246 -30 -482 -102l-15 -15l1 -85l29 -156l1 -156l29 -43q712 175 922 176h14q85 -9 85 -42v-15q1 -94 -1020 -346q1 -136 87 -468l1 -113l-56 -57h-57q-61 -1 -100 55l14 71q-72 169 -116 511l-72 71v42l56 72
l-30 326l-2 355q43 71 99 72l57 -29z" />
    <glyph glyph-name="G" unicode="G" horiz-adv-x="1872" 
d="M1387 1525q142 0 286 -198q0 -76 -57 -99l-71 -1l-256 84l-71 -15l-71 14q-131 -71 -354 -129q-580 -363 -579 -586q-25 0 -28 -71v-28q1 -274 498 -310l128 1q454 91 453 244q-73 73 -227 112l-43 -14l-142 13l-199 -44q-70 0 -99 99q16 108 679 316l526 60l71 -85v-14
q1 -77 -553 -159l-14 -15h-14v-14q185 -166 186 -198v-99q1 -155 -339 -343l-269 -72l-199 -1q-318 35 -470 168q-157 145 -158 311v71q-1 212 253 527q668 472 1133 475z" />
    <glyph glyph-name="H" unicode="H" horiz-adv-x="1452" 
d="M1191 1738q128 1 130 -411v-42l29 -114v-71l-14 -57q29 -56 74 -539l1 -128q1 -241 -127 -242h-14l-57 57v28q-1 222 -105 993l-16 426q0 46 99 100zM56 1505h28q118 1 129 -141l31 -497l14 -14q283 115 780 160q65 -27 72 -56v-43q-217 -129 -411 -130l-454 -144v-14
l15 -43l-14 -71v-43l29 -99l-14 -14l44 -298v-43q-26 -51 -85 -71q-152 0 -202 680v43q9 185 27 185q-43 90 -44 298l28 85l-29 114q10 156 56 156z" />
    <glyph glyph-name="I" unicode="I" horiz-adv-x="444" 
d="M70 1676l28 1q142 0 143 -255l133 -979q29 0 30 -171q0 -78 -99 -128h-14q-114 17 -114 85l-134 1121l-43 71v14q3 71 28 71l-15 71q0 76 57 99z" />
    <glyph glyph-name="J" unicode="J" horiz-adv-x="1261" 
d="M958 1818q199 -135 200 -269l1 -156l44 -298l-14 -14v-14l29 -114l2 -426q1 -204 -182 -498q-180 -142 -397 -143q-501 -3 -641 351v71q88 270 240 271l57 -42v-29q-99 -123 -98 -185v-14q0 -134 271 -226l199 1q296 2 352 428l-1 327l-30 241l14 14v14l-116 525l-15 100
v14q40 71 85 71z" />
    <glyph glyph-name="K" unicode="K" horiz-adv-x="1651" 
d="M1064 1719q59 -19 86 -70v-29q1 -143 -536 -713v-14q93 -66 754 -294q242 -70 242 -127l1 -56q0 -114 -128 -115q-237 141 -327 141l-654 238q-1 41 -228 84l1 -114q30 -340 87 -497q-41 -99 -127 -100q-85 0 -129 284l14 42q-72 189 -74 511l-14 14l14 57l-29 156l-1 71
l-16 384l71 43q83 0 142 -113l2 -327l29 -113l1 -185l29 -28q-1 72 141 128q418 431 593 728z" />
    <glyph glyph-name="L" unicode="L" horiz-adv-x="1325" 
d="M85 1574q142 -82 143 -198l1 -128l14 -128l-14 -14v-14l15 -114l-14 -57l15 -128v-14l-13 -156l29 -85l1 -341q1 -28 43 -28q664 131 880 132l43 1l57 -57v-99q-36 -71 -113 -72l-242 -1q-528 -130 -624 -131v14l-113 -29h-43l-100 99l14 71v14l-15 85l15 14l-1 15
l-29 227h14l-14 14v28l-15 185l13 170l-15 170l14 15q-29 138 -31 411v57q40 71 85 72z" />
    <glyph glyph-name="M" unicode="M" horiz-adv-x="1849" 
d="M1561 1467h43q66 1 86 -227l-14 -42q132 -728 133 -965q-6 -284 -83 -284h-29q-61 -1 -87 467q-69 137 -117 625q-218 -284 -394 -670l-85 -86q-251 -1 -685 679q-80 144 -115 155l-14 -14v-14l29 -128l1 -227l31 -327l-15 -14l15 -99l2 -270q-24 -142 -113 -142
q-71 -1 -72 169l14 86q-26 48 -89 652l14 71l-16 284v15l14 127l-15 71q11 49 85 86q289 -93 428 -339q159 -314 443 -565q-1 60 366 584q140 341 239 342z" />
    <glyph glyph-name="N" unicode="N" horiz-adv-x="1565" 
d="M1248 1538h71q86 -36 143 -269l-14 -71l15 -57l-14 -42l14 -100l-27 -227l15 -43l-14 -113l15 -57l-15 -14v-14q30 -267 88 -440q0 -21 -57 -43q-241 49 -327 154l-870 791l-57 14v-114l15 -56l-14 -57q29 -76 60 -582v-99q1 -78 -70 -114h-29q-60 0 -130 553l-1 99
l-29 113l-16 398q51 156 127 157q177 1 599 -437l513 -466h29v14l-30 199l-3 596q0 92 -72 170v29q0 78 85 128z" />
    <glyph glyph-name="O" unicode="O" horiz-adv-x="1435" 
d="M607 1436q340 -83 613 -423q172 -350 173 -453v-29q2 -443 -749 -642l-85 -1q-413 90 -413 225q-129 97 -130 326h-14q-2 378 393 882q173 115 212 115zM201 440q86 -284 186 -283q0 -25 171 -56h71q446 2 594 372v71q-2 221 -344 567q-106 87 -256 98q-152 -1 -381 -528
z" />
    <glyph glyph-name="P" unicode="P" horiz-adv-x="1245" 
d="M648 1622l170 1q384 -90 386 -396v-28q1 -147 -339 -414q-427 -178 -467 -229l59 -554l1 -170q1 -76 -56 -100h-71l-43 43l-1 184l-102 567l-71 -14q-114 13 -114 56v14q10 34 156 129l-75 596q-1 199 241 228zM294 1322q57 -568 103 -568q623 249 622 501
q-1 158 -328 183z" />
    <glyph glyph-name="Q" unicode="Q" horiz-adv-x="1964" 
d="M917 1380q113 -8 356 -239q272 -365 274 -737q34 -68 428 -353l14 -70q-51 -43 -99 -43q-138 5 -413 224h-14q-450 -399 -949 -402q-371 -2 -513 352l-1 142q6 372 506 982q95 100 198 101h29l14 -14q108 57 170 57zM848 1096l-157 28q-381 -345 -493 -798l1 -142
q1 -209 413 -225q289 19 581 187q114 76 113 100v29l-256 155q-343 154 -541 153l-14 14v43q14 113 113 114l71 -14l57 15q165 0 626 -253l14 15q-49 305 -287 552q-93 70 -142 70z" />
    <glyph glyph-name="R" unicode="R" horiz-adv-x="1451" 
d="M849 1482h43q235 1 271 -283q1 -142 -522 -570q0 -29 -43 -29l-14 -14v-29q94 1 613 -422q213 -13 213 -70l1 -14q0 -142 -128 -143q-171 0 -584 352q-195 141 -327 140q-113 -12 -113 -57q1 -219 73 -496q-28 -86 -113 -86q-61 0 -158 439l27 128q-61 34 -85 99l28 85
l-15 85l14 100l-15 141l14 15v14l-29 85q38 227 98 228q301 257 524 258q129 43 227 44zM269 1039l15 -57q-71 -103 -70 -299l15 -85h14q163 1 609 429q112 153 112 228l-43 43l-142 -1q-363 -72 -510 -244v-14z" />
    <glyph glyph-name="S" unicode="S" horiz-adv-x="1536" 
d="M908 1551q412 -74 413 -197q1 -184 -127 -185q-85 0 -100 142l-43 28l-540 -3q-340 -65 -339 -201v-14q0 -68 526 -168l57 15q710 -110 712 -351q19 0 29 -128q-213 -384 -751 -387v14l-14 -14h-14q-290 -2 -428 281v43q-1 120 84 171h57q32 0 44 -184q125 -127 313 -126
q371 1 510 272l-1 14q0 152 -995 251q-299 126 -300 282v114q-1 161 339 257q0 32 568 74z" />
    <glyph glyph-name="T" unicode="T" horiz-adv-x="1716" 
d="M1859 1570l57 -14l85 15q89 -28 100 -71v-85l-56 -57l-100 -1l-113 -29h-57l-99 28l-526 -31l-14 -14v-15l43 -56l-14 -100l16 -255v-85l-14 -15l15 -14l-13 -213v-99q59 -470 131 -610q-74 -99 -141 -100q-160 -1 -203 808l-16 213l14 114l-14 14l-1 14l29 71l-15 14
l14 100l-1 85q0 105 -43 113h-57q-65 -29 -794 -61q-72 75 -72 113q41 100 127 100l384 2l823 90l369 2q101 0 156 29z" />
    <glyph glyph-name="U" unicode="U" horiz-adv-x="1325" 
d="M994 1439q114 0 158 -468l45 -369l-14 -14l102 -624q-23 -71 -70 -71q-185 79 -187 367l-43 43q-310 -413 -565 -415q-171 28 -257 126q-128 168 -130 412l-14 14v14l28 85l-29 57q28 56 28 156l-2 341l-44 270l42 28l57 1q171 -81 173 -369l14 -113l-54 -370
q2 -440 172 -439q270 1 509 386l42 142v114l-60 454v142q-1 99 99 100z" />
    <glyph glyph-name="V" unicode="V" horiz-adv-x="1488" 
d="M1376 1764q65 -27 71 -56v-14q1 -156 -83 -384l14 -14v-15l-264 -1038q-160 -327 -268 -327h-29q-143 75 -271 339l-259 580q0 68 -143 127l-14 15v56l28 29q-34 104 -157 226v29q-1 99 84 100q201 1 429 -580q42 -12 230 -525q39 -94 86 -113q177 277 280 740l167 754
q56 71 99 71z" />
    <glyph glyph-name="W" unicode="W" horiz-adv-x="2054" 
d="M1943 1767h28l43 -57q-111 -415 -111 -497q-97 -470 -95 -853l15 -127l-14 -71l15 -170q-54 -72 -113 -72q-186 -1 -457 508q-143 295 -273 652q-32 0 -57 99h-29q-112 -262 -209 -825q-56 -144 -82 -425l-71 -58h-29q-120 0 -186 340q-23 -1 -72 283q-33 0 -59 255
q-34 27 -130 412q-57 63 -57 127l128 58q135 0 316 -780q28 0 29 -99h28q130 707 336 925l14 14h57q109 1 286 -310l230 -567q91 -204 157 -241h15l-1 142l28 114l-1 99l138 796q149 312 183 328z" />
    <glyph glyph-name="X" unicode="X" horiz-adv-x="1367" 
d="M1107 1510h14q128 1 129 -169q-19 -72 -99 -72h-57q0 -46 -141 -171l-240 -300q123 -196 528 -551l86 -156q-13 -85 -42 -85h-42q-92 -1 -671 593l-28 -1q-395 -534 -394 -739l-42 -29h-29l-71 70l-1 100q-1 202 422 782v15q-316 314 -372 495l-57 70v43q23 57 99 57
q71 1 229 -240l242 -268q30 1 438 527z" />
    <glyph glyph-name="Y" unicode="Y" horiz-adv-x="1446" 
d="M1249 1709h14q99 0 143 -170l-154 -555q-181 -625 -236 -952v-14l14 -42l-13 -71l1 -199l29 -128q0 -74 -99 -114q-71 0 -115 170v99l-30 199q31 374 138 795q-51 134 -670 494q-270 176 -271 254v28q14 43 85 43q169 1 712 -408q53 1 200 -126h14q126 362 125 554
q-1 84 113 143z" />
    <glyph glyph-name="Z" unicode="Z" horiz-adv-x="1722" 
d="M1135 1399q60 1 114 -98v-57q-329 -461 -578 -742q-364 -378 -381 -470l142 1l114 14l113 -13l908 104h15q99 -28 100 -113q0 -91 -128 -114l-156 -1l-851 -89l-171 -1l-227 -16q-114 61 -114 142q83 251 253 427l466 542l197 256l-42 14l-85 -14l-15 14h-14
q-143 -53 -567 -103l-71 -28q-157 31 -157 84v43q183 157 652 159q40 39 483 59z" />
    <glyph glyph-name="a" unicode="a" horiz-adv-x="1205" 
d="M767 1069h42q139 0 228 -142q-15 -260 -43 -299l14 -71l-14 -56q114 -426 170 -483q0 -85 -85 -142h-42q-82 46 -185 312l-71 270v71h-14q-373 -525 -526 -525h-28q-199 42 -199 198l-14 43q32 263 284 554q344 270 483 270zM199 245v-14l42 -14q164 35 512 596l14 43
h-29q-316 -128 -511 -469z" />
    <glyph glyph-name="b" unicode="b" horiz-adv-x="1062" 
d="M128 1608q128 -28 128 -142l-29 -156l29 -156l-15 -128q15 -362 43 -469h-14l14 -56h14l270 227q206 142 327 142q81 0 127 -100v-113q-159 -423 -525 -667l-128 -43l-85 14l-128 -14q-85 85 -85 184v71l14 71l-42 299v142l-43 369l14 213v99q18 213 114 213zM327 89
q277 177 482 525l29 57v14q-142 -25 -412 -326q-99 -189 -99 -270z" />
    <glyph glyph-name="c" unicode="c" horiz-adv-x="849" 
d="M525 941q284 -11 284 -85v-71l-71 -57l-71 14h-14q-245 0 -468 -440l14 -14h128q127 0 426 170h14l42 -43v-28q-276 -312 -568 -312q-184 0 -241 198v100q99 234 327 454q120 114 198 114z" />
    <glyph glyph-name="d" unicode="d" horiz-adv-x="1275" 
d="M1022 1708h29q113 0 113 -171l-42 -42v-29l57 -383v-242q0 -120 28 -184l-14 -57l14 -199h-14l14 -14v-369l28 -85q-35 -92 -71 -99h-71q-78 0 -113 667l-14 14l14 85q-43 53 -270 85q-511 -160 -511 -312l42 -29q270 0 682 199h14l14 -14v-43q0 -78 -411 -298l-128 -42
h-171q-241 78 -241 198v15q0 259 625 511l156 28l185 -71v14l-15 71l15 86l-29 397v14q11 299 85 299z" />
    <glyph glyph-name="e" unicode="e" horiz-adv-x="793" 
d="M554 1140q152 0 199 -242q-82 -280 -313 -412q-135 -110 -199 -127q15 -128 199 -128l256 99l28 -57q-120 -241 -397 -241q-142 0 -299 256l-28 170v71q21 220 241 454q167 157 313 157zM213 600h28q327 131 327 341h-28v14q-103 0 -299 -270z" />
    <glyph glyph-name="f" unicode="f" horiz-adv-x="1071" 
d="M738 1828q412 -191 412 -298v-43l-28 -28h-14l-370 128q-42 -89 -99 -355v-57h57l397 43l15 -15h14l57 15l42 -43v-14q-67 -71 -596 -199l-43 -57v-28h14l-14 -213v-284q0 -284 227 -482v-29l-28 -28h-43q-227 0 -326 425l-29 341l15 114l-15 14l15 71v57l-15 14v14
q-213 -85 -269 -85h-43q-71 42 -71 99q0 132 412 199q142 724 326 724z" />
    <glyph glyph-name="g" unicode="g" horiz-adv-x="1307" 
d="M440 1097q195 0 270 -156v-14l-28 -57q127 -298 127 -483l15 -57l14 -14h14q238 153 511 170q71 -10 71 -42v-29q0 -35 -298 -99q-199 -99 -284 -213v-57l114 -695v-327l-15 -85l15 -57q-39 -18 -142 -241q-146 -85 -228 -85h-28q-273 0 -454 440v42q0 522 539 1136v170
q-89 370 -128 370q-213 -327 -340 -327q-185 25 -185 170v128q167 412 440 412zM199 628v-14l14 -14v-14q64 0 199 284h-14q-199 -107 -199 -242zM298 -976q117 -298 270 -298h14q171 0 213 312v128q-81 767 -128 767q-369 -437 -369 -909z" />
    <glyph glyph-name="h" unicode="h" horiz-adv-x="1204" 
d="M99 1832q150 0 171 -426l113 -540h15q266 384 454 384h28q157 0 213 -639l-28 -71q39 -235 99 -270v-29l-85 -71h-85q-85 0 -128 355h-14l14 86q0 181 -42 440h-29q-341 -334 -341 -568q-35 -39 -42 -142v-100l-71 -71h-29q-110 0 -142 185l15 227v43l-15 71h15l-142 894
q-25 0 -43 128q18 114 99 114z" />
    <glyph glyph-name="i" unicode="i" horiz-adv-x="503" 
d="M37 1803q327 -191 327 -213v-28l-57 -57h-71q-341 43 -341 199q0 99 142 99zM278 1179q61 -18 86 -71v-15l-57 -213q156 -454 156 -568q-46 -163 -114 -184h-14q-49 0 -113 57l14 184q-142 508 -142 597v56q0 128 184 157z" />
    <glyph glyph-name="j" unicode="j" horiz-adv-x="1349" 
d="M909 1814q465 -21 483 -71v-28q0 -61 -284 -71l-57 -43h-57q-85 0 -142 85v85q0 22 57 43zM994 238v-14q270 -596 270 -809l-14 -14v-15l14 -85q0 -397 -398 -554l-270 -14q-284 50 -397 142q-181 174 -199 355v57q0 358 710 979q-124 210 -199 284v85q43 71 100 71
q71 -7 284 -298l411 270l86 28q75 0 93 -147l-207 -94q-273 -192 -284 -227zM781 110q-557 -489 -611 -809v-14q0 -348 441 -412h56q412 43 412 369v142q-10 181 -284 724h-14z" />
    <glyph glyph-name="k" unicode="k" horiz-adv-x="1219" 
d="M114 1679h14q78 0 128 -426v-426h28q213 213 341 398l156 57q43 0 99 -100q0 -50 -184 -199l-199 -227v-28l312 14q370 -7 370 -57v-14q0 -53 -483 -114l-213 -14h-85l-57 -14l-57 14h-14q-29 0 -29 -42l15 -100l-15 -85l15 -43q-36 -110 -86 -127h-56q-71 35 -86 85
l15 113l-15 341l15 270l-15 71l15 14v14l-15 71l15 171l-43 284q0 85 114 99z" />
    <glyph glyph-name="l" unicode="l" horiz-adv-x="565" 
d="M99 1750q100 0 142 -426l15 -14l-15 -14q96 -710 199 -895q85 -152 85 -298q0 -85 -113 -99q-85 85 -85 198q-64 61 -199 497q-71 284 -128 781v199q43 71 99 71z" />
    <glyph glyph-name="m" unicode="m" horiz-adv-x="1460" 
d="M57 1005h28q142 -32 142 -142l-28 -86l14 -85q178 298 270 298h28q103 0 142 -326l-28 -156l14 -15h14q117 370 256 426h85q75 -63 270 -482q156 -146 156 -199l-43 -43q-241 0 -411 412q0 57 -29 57l-170 -355q-57 -131 -142 -185h-85q-114 89 -114 341l14 199v14h-14
q-156 -327 -156 -497q-21 -114 -128 -114q-71 0 -142 540v298q0 78 57 100z" />
    <glyph glyph-name="n" unicode="n" horiz-adv-x="736" 
d="M99 1033q89 0 142 -284h15q138 256 184 270h85q61 0 100 -199l-14 -57l28 -255l-14 -86v-170l71 -255l-57 -57q-227 124 -227 440v241h-14q-114 -202 -185 -454l-43 -29h-42q-78 0 -100 71l29 284q-18 455 -57 455q32 85 99 85z" />
    <glyph glyph-name="o" unicode="o" horiz-adv-x="878" 
d="M369 1111q242 0 426 -369l43 -185q0 -298 -341 -482q-71 -43 -142 -43h-43q-191 0 -312 327v71q28 298 114 411q32 0 85 199q113 71 170 71zM199 444v-57q0 -92 128 -142q202 0 340 213v43q0 255 -227 411h-14q-227 -245 -227 -468z" />
    <glyph glyph-name="p" unicode="p" horiz-adv-x="1247" 
d="M99 1111q61 0 142 -99l299 57l14 -15l71 15q451 0 554 -213l28 -86v-42q0 -224 -852 -653v-71q85 -316 85 -469v-56l29 -100q-43 -199 -86 -199h-56l-57 57v85l14 57l-156 767q-57 553 -100 553q-24 0 -28 71v43q43 53 43 99v142zM270 699l28 -142h-14l14 -14v-113
q0 -185 57 -185q653 341 653 511v29q0 53 -270 99h-156q-312 -46 -312 -99v-86z" />
    <glyph glyph-name="q" unicode="q" horiz-adv-x="1006" 
d="M582 1111q270 -46 270 -128l114 -979v-128l-15 -156l15 -43q-68 -447 -157 -539h-28q-35 0 -43 57l29 284v539l-85 497h-29q-184 -142 -312 -142h-100q-159 0 -241 241v57q0 185 426 412q57 28 156 28zM199 628q7 -39 71 -56q280 0 397 198q0 86 -99 86l-14 42
q-355 -152 -355 -270z" />
    <glyph glyph-name="r" unicode="r" horiz-adv-x="878" 
d="M99 1097q157 -57 157 -227l28 -185q227 341 497 341q57 -21 57 -43v-56l-14 -15q-128 0 -327 -227q-128 -223 -128 -383l43 -284v-113l-71 -71q-185 53 -185 368l-156 781v15q0 46 99 99z" />
    <glyph glyph-name="s" unicode="s" horiz-adv-x="1275" 
d="M781 1012q238 0 270 -185v-14l-43 -43h-42l-114 29h-170q-483 -96 -483 -199q14 -43 85 -43h341l284 29l99 -14l100 14q110 -36 127 -85v-57q0 -156 -582 -412l-255 -56h-100q-142 17 -142 141q43 128 156 128l29 -85h14q359 92 639 227v14h-43l-298 -28h-426
q-110 0 -227 213q0 312 781 426z" />
    <glyph glyph-name="t" unicode="t" horiz-adv-x="1273" 
d="M540 1424h28q92 0 142 -540l28 -28l15 14h56l512 57l142 -15l71 15l56 -43v-14q0 -68 -411 -114l-426 -85l-15 -14v-29l86 -610q-54 -262 -114 -270h-14q-75 0 -85 43l28 156q-14 252 -114 681h-14l-113 -14l-71 14l-114 -28h-128q-60 35 -85 99q0 96 426 128l57 -14h28
v156l-57 298q50 157 86 157z" />
    <glyph glyph-name="u" unicode="u" horiz-adv-x="1119" 
d="M142 1012q85 -64 85 -114l-28 -199v-198q39 -306 85 -341q238 113 341 497l28 142l-28 85q0 64 113 128q114 0 114 -327q57 -429 227 -766v-29l-28 -28h-14q-139 0 -299 383l-28 128h-14q-288 -426 -412 -426q-252 0 -284 710v113q25 242 128 242h14z" />
    <glyph glyph-name="v" unicode="v" horiz-adv-x="1105" 
d="M980 1040h28q57 -28 57 -71q-280 -1192 -383 -1192h-29q-106 0 -227 340q-121 277 -412 554l-14 57v28l57 57h14q174 0 341 -298q81 -46 199 -369h14q71 113 156 383q135 511 199 511z" />
    <glyph glyph-name="w" unicode="w" horiz-adv-x="1659" 
d="M1576 1154l43 -43q-142 -539 -199 -1107q-46 -99 -71 -99h-43q-223 116 -411 738q-86 -47 -213 -667v-114l-86 -85h-56q-174 167 -284 440l-256 497v56l57 57h42q75 0 313 -454q85 -203 113 -213q157 532 284 752l86 29h14q96 0 270 -540l71 -113q202 866 326 866z" />
    <glyph glyph-name="x" unicode="x" horiz-adv-x="1148" 
d="M923 1026q128 -36 128 -128q0 -28 -114 -85q-103 -199 -184 -440v-14q355 -320 355 -469l-57 -56h-43l-355 326h-28q-36 -139 -199 -298h-43q-35 0 -42 57q142 315 142 369q0 60 -114 127l-369 355v57q7 29 71 57q99 0 511 -355h14q75 103 114 284q99 213 213 213z" />
    <glyph glyph-name="y" unicode="y" horiz-adv-x="977" 
d="M809 1051h29l99 -100v-85q-92 0 -170 -809l-128 -639q-18 0 -57 -170v-142q-42 -355 -99 -355h-14q-57 32 -57 71l-14 184l142 1065l14 185q-89 0 -440 326q-71 0 -114 71v43q57 85 128 85q117 -18 383 -270l85 -42q107 568 157 568z" />
    <glyph glyph-name="z" unicode="z" horiz-adv-x="1176" 
d="M383 1008l15 -14l142 14h56q313 0 313 -156q-21 -199 -114 -270q-305 -365 -426 -638q231 92 597 312l142 56l28 -42v-29q-135 -134 -369 -269q0 -89 -440 -227q-118 0 -157 142v57q57 198 370 624l156 213v28l-57 15l-568 -43q-64 28 -71 57v85q36 71 114 71l42 -14z
" />
    <glyph glyph-name="quotedblleft" unicode="&#x201c;" 
d="M62 1633l128 2q42 -13 44 -84q-11 -426 -35 -427l15 -71l2 -142q-31 -53 -111 -101l-43 -1q-57 29 -58 70l12 100l-16 127l22 370l-1 71q7 85 41 86zM488 1612l114 2q57 -27 58 -84l-82 -158l-24 -256v-28l31 -156l1 -43q1 -42 -56 -43q-108 -2 -163 366q30 399 121 400z
" />
    <glyph glyph-name="quotedblright" unicode="&#x201d;" 
d="M639 1547l-1 -71l22 -370l-16 -127l12 -100q-1 -41 -58 -70l-42 1q-81 48 -112 101l2 142l16 71q-25 1 -36 427q2 71 45 84l127 -2q34 -1 41 -86zM293 1212q-55 -368 -163 -366q-57 1 -56 43l1 43l31 156v28l-24 256l-82 158q1 57 58 84l114 -2q91 -1 121 -400z" />
    <glyph glyph-name="quoteleft" unicode="&#x2018;" horiz-adv-x="395" 
d="M99 1507l15 1q127 2 133 -339q25 1 63 -340l1 -71l44 -56v-28l-68 -129l-86 -1q-45 15 -87 140l12 85q-90 283 -123 566l-1 43q-2 128 97 129z" />
    <glyph glyph-name="quoteright" unicode="&#x2019;" horiz-adv-x="395" 
d="M353 1378l-1 -43q-33 -283 -123 -566l13 -85q-42 -125 -88 -140l-85 1l-69 129v28l44 56l1 71q38 341 63 340q6 341 134 339l14 -1q99 -1 97 -129z" />
  </font>
</defs>
</svg>
